{
    "asset" : {
        "generator" : "Khronos glTF Blender I/O v3.2.43",
        "version" : "2.0"
    },
    "scene" : 0,
    "scenes" : [
        {
            "name" : "Scene",
            "nodes" : [
                0
            ]
        }
    ],
    "nodes" : [
        {
            "mesh" : 0,
            "name" : "Icosphere.001",
            "rotation" : [
                -0.09909461438655853,
                0.46143054962158203,
                -0.30089250206947327,
                0.8286892175674438
            ],
            "scale" : [
                0.1467452198266983,
                0.1467452049255371,
                0.1467452198266983
            ]
        }
    ],
    "materials" : [
        {
            "doubleSided" : true,
            "name" : "Material.009",
            "pbrMetallicRoughness" : {
                "baseColorFactor" : [
                    0.05934720113873482,
                    0.4340091645717621,
                    0,
                    1
                ],
                "metallicFactor" : 0,
                "roughnessFactor" : 0.5
            }
        },
        {
            "doubleSided" : true,
            "name" : "Material.008",
            "pbrMetallicRoughness" : {
                "baseColorFactor" : [
                    0.11268319934606552,
                    0.45403891801834106,
                    0,
                    1
                ],
                "metallicFactor" : 0,
                "roughnessFactor" : 0.5
            }
        },
        {
            "doubleSided" : true,
            "name" : "Material.006",
            "pbrMetallicRoughness" : {
                "baseColorTexture" : {
                    "index" : 0
                },
                "metallicFactor" : 0,
                "roughnessFactor" : 0.5
            }
        },
        {
            "doubleSided" : true,
            "name" : "Material.004",
            "pbrMetallicRoughness" : {
                "baseColorFactor" : [
                    0.8000000715255737,
                    0.21491988003253937,
                    0,
                    1
                ],
                "metallicFactor" : 0,
                "roughnessFactor" : 0.5
            }
        },
        {
            "doubleSided" : true,
            "name" : "Material.005",
            "pbrMetallicRoughness" : {
                "baseColorFactor" : [
                    0.13874229788780212,
                    0.01645924150943756,
                    0,
                    1
                ],
                "metallicFactor" : 0,
                "roughnessFactor" : 0.5
            }
        }
    ],
    "meshes" : [
        {
            "name" : "Mesh",
            "primitives" : [
                {
                    "attributes" : {
                        "POSITION" : 0,
                        "NORMAL" : 1,
                        "TEXCOORD_0" : 2
                    },
                    "indices" : 3,
                    "material" : 0
                },
                {
                    "attributes" : {
                        "POSITION" : 4,
                        "NORMAL" : 5,
                        "TEXCOORD_0" : 6
                    },
                    "indices" : 7,
                    "material" : 1
                },
                {
                    "attributes" : {
                        "POSITION" : 8,
                        "NORMAL" : 9,
                        "TEXCOORD_0" : 10
                    },
                    "indices" : 11,
                    "material" : 2
                },
                {
                    "attributes" : {
                        "POSITION" : 12,
                        "NORMAL" : 13,
                        "TEXCOORD_0" : 14
                    },
                    "indices" : 15,
                    "material" : 3
                },
                {
                    "attributes" : {
                        "POSITION" : 16,
                        "NORMAL" : 17,
                        "TEXCOORD_0" : 18
                    },
                    "indices" : 19,
                    "material" : 4
                }
            ]
        }
    ],
    "textures" : [
        {
            "sampler" : 0,
            "source" : 0
        }
    ],
    "images" : [
        {
            "bufferView" : 12,
            "mimeType" : "image/jpeg",
            "name" : "Image_1"
        }
    ],
    "accessors" : [
        {
            "bufferView" : 0,
            "componentType" : 5126,
            "count" : 1360,
            "max" : [
                3.9640421867370605,
                -3.116616725921631,
                -7.434372425079346
            ],
            "min" : [
                -13.710698127746582,
                -5.902298450469971,
                -10.65421199798584
            ],
            "type" : "VEC3"
        },
        {
            "bufferView" : 1,
            "componentType" : 5126,
            "count" : 1360,
            "type" : "VEC3"
        },
        {
            "bufferView" : 2,
            "componentType" : 5126,
            "count" : 1360,
            "type" : "VEC2"
        },
        {
            "bufferView" : 3,
            "componentType" : 5123,
            "count" : 2040,
            "type" : "SCALAR"
        },
        {
            "bufferView" : 4,
            "componentType" : 5126,
            "count" : 6720,
            "max" : [
                2.1965150833129883,
                -2.994640350341797,
                -7.760232925415039
            ],
            "min" : [
                -10.739731788635254,
                -5.577875137329102,
                -10.328356742858887
            ],
            "type" : "VEC3"
        },
        {
            "bufferView" : 5,
            "componentType" : 5126,
            "count" : 6720,
            "type" : "VEC3"
        },
        {
            "bufferView" : 6,
            "componentType" : 5126,
            "count" : 6720,
            "type" : "VEC2"
        },
        {
            "bufferView" : 7,
            "componentType" : 5123,
            "count" : 10080,
            "type" : "SCALAR"
        },
        {
            "bufferView" : 8,
            "componentType" : 5126,
            "count" : 21767,
            "max" : [
                3.3194761276245117,
                3.3276121616363525,
                4.244994640350342
            ],
            "min" : [
                -3.920375108718872,
                -3.9838485717773438,
                -4.777268886566162
            ],
            "type" : "VEC3"
        },
        {
            "bufferView" : 9,
            "componentType" : 5126,
            "count" : 21767,
            "type" : "VEC3"
        },
        {
            "bufferView" : 10,
            "componentType" : 5126,
            "count" : 21767,
            "type" : "VEC2"
        },
        {
            "bufferView" : 11,
            "componentType" : 5123,
            "count" : 71424,
            "type" : "SCALAR"
        },
        {
            "bufferView" : 13,
            "componentType" : 5126,
            "count" : 5376,
            "max" : [
                10.358237266540527,
                6.044193267822266,
                15.632455825805664
            ],
            "min" : [
                1.4652820825576782,
                2.7866854667663574,
                6.4253010749816895
            ],
            "type" : "VEC3"
        },
        {
            "bufferView" : 14,
            "componentType" : 5126,
            "count" : 5376,
            "type" : "VEC3"
        },
        {
            "bufferView" : 15,
            "componentType" : 5126,
            "count" : 5376,
            "type" : "VEC2"
        },
        {
            "bufferView" : 16,
            "componentType" : 5123,
            "count" : 8064,
            "type" : "SCALAR"
        },
        {
            "bufferView" : 17,
            "componentType" : 5126,
            "count" : 1536,
            "max" : [
                1.7227140665054321,
                7.752886772155762,
                6.710623741149902
            ],
            "min" : [
                -1.1298176050186157,
                4.834147930145264,
                3.480468273162842
            ],
            "type" : "VEC3"
        },
        {
            "bufferView" : 18,
            "componentType" : 5126,
            "count" : 1536,
            "type" : "VEC3"
        },
        {
            "bufferView" : 19,
            "componentType" : 5126,
            "count" : 1536,
            "type" : "VEC2"
        },
        {
            "bufferView" : 20,
            "componentType" : 5123,
            "count" : 2304,
            "type" : "SCALAR"
        }
    ],
    "bufferViews" : [
        {
            "buffer" : 0,
            "byteLength" : 16320,
            "byteOffset" : 0
        },
        {
            "buffer" : 0,
            "byteLength" : 16320,
            "byteOffset" : 16320
        },
        {
            "buffer" : 0,
            "byteLength" : 10880,
            "byteOffset" : 32640
        },
        {
            "buffer" : 0,
            "byteLength" : 4080,
            "byteOffset" : 43520
        },
        {
            "buffer" : 0,
            "byteLength" : 80640,
            "byteOffset" : 47600
        },
        {
            "buffer" : 0,
            "byteLength" : 80640,
            "byteOffset" : 128240
        },
        {
            "buffer" : 0,
            "byteLength" : 53760,
            "byteOffset" : 208880
        },
        {
            "buffer" : 0,
            "byteLength" : 20160,
            "byteOffset" : 262640
        },
        {
            "buffer" : 0,
            "byteLength" : 261204,
            "byteOffset" : 282800
        },
        {
            "buffer" : 0,
            "byteLength" : 261204,
            "byteOffset" : 544004
        },
        {
            "buffer" : 0,
            "byteLength" : 174136,
            "byteOffset" : 805208
        },
        {
            "buffer" : 0,
            "byteLength" : 142848,
            "byteOffset" : 979344
        },
        {
            "buffer" : 0,
            "byteLength" : 138833,
            "byteOffset" : 1122192
        },
        {
            "buffer" : 0,
            "byteLength" : 64512,
            "byteOffset" : 1261028
        },
        {
            "buffer" : 0,
            "byteLength" : 64512,
            "byteOffset" : 1325540
        },
        {
            "buffer" : 0,
            "byteLength" : 43008,
            "byteOffset" : 1390052
        },
        {
            "buffer" : 0,
            "byteLength" : 16128,
            "byteOffset" : 1433060
        },
        {
            "buffer" : 0,
            "byteLength" : 18432,
            "byteOffset" : 1449188
        },
        {
            "buffer" : 0,
            "byteLength" : 18432,
            "byteOffset" : 1467620
        },
        {
            "buffer" : 0,
            "byteLength" : 12288,
            "byteOffset" : 1486052
        },
        {
            "buffer" : 0,
            "byteLength" : 4608,
            "byteOffset" : 1498340
        }
    ],
    "samplers" : [
        {
            "magFilter" : 9729,
            "minFilter" : 9987
        }
    ],
    "buffers" : [
        {
            "byteLength" : 1502948,
            "uri" : "data:application/octet-stream;base64,"
        }
    ]
}
