{
    "asset" : {
        "generator" : "Khronos glTF Blender I/O v3.2.43",
        "version" : "2.0"
    },
    "scene" : 0,
    "scenes" : [
        {
            "name" : "Scene",
            "nodes" : [
                0
            ]
        }
    ],
    "nodes" : [
        {
            "mesh" : 0,
            "name" : "Sphere",
            "rotation" : [
                0,
                0.7312407493591309,
                0,
                0.6821195483207703
            ],
            "scale" : [
                0.5868200063705444,
                0.5900769233703613,
                1.4537415504455566
            ]
        }
    ],
    "materials" : [
        {
            "doubleSided" : true,
            "name" : "Material.001",
            "pbrMetallicRoughness" : {
                "baseColorTexture" : {
                    "index" : 0
                },
                "metallicFactor" : 0
            }
        },
        {
            "doubleSided" : true,
            "name" : "Material",
            "pbrMetallicRoughness" : {
                "baseColorTexture" : {
                    "index" : 1
                },
                "metallicFactor" : 0,
                "roughnessFactor" : 0.4000000059604645
            }
        },
        {
            "doubleSided" : true,
            "name" : "Material.002",
            "pbrMetallicRoughness" : {
                "baseColorTexture" : {
                    "index" : 2
                },
                "metallicFactor" : 0,
                "roughnessFactor" : 0.5
            }
        },
        {
            "doubleSided" : true,
            "name" : "Material.003",
            "pbrMetallicRoughness" : {
                "baseColorFactor" : [
                    0,
                    0.08409935981035233,
                    0.8000000715255737,
                    1
                ],
                "metallicFactor" : 0,
                "roughnessFactor" : 0.5
            }
        }
    ],
    "meshes" : [
        {
            "name" : "Sphere",
            "primitives" : [
                {
                    "attributes" : {
                        "POSITION" : 0,
                        "NORMAL" : 1,
                        "TEXCOORD_0" : 2
                    },
                    "indices" : 3,
                    "material" : 0
                },
                {
                    "attributes" : {
                        "POSITION" : 4,
                        "NORMAL" : 5,
                        "TEXCOORD_0" : 6
                    },
                    "indices" : 7,
                    "material" : 1
                },
                {
                    "attributes" : {
                        "POSITION" : 8,
                        "NORMAL" : 9,
                        "TEXCOORD_0" : 10
                    },
                    "indices" : 11,
                    "material" : 2
                },
                {
                    "attributes" : {
                        "POSITION" : 12,
                        "NORMAL" : 13,
                        "TEXCOORD_0" : 14
                    },
                    "indices" : 15,
                    "material" : 3
                }
            ]
        }
    ],
    "textures" : [
        {
            "sampler" : 0,
            "source" : 0
        },
        {
            "sampler" : 0,
            "source" : 1
        },
        {
            "sampler" : 0,
            "source" : 2
        }
    ],
    "images" : [
        {
            "bufferView" : 4,
            "mimeType" : "image/jpeg",
            "name" : "peanut-shells-pattern-background-55772777"
        },
        {
            "bufferView" : 9,
            "mimeType" : "image/jpeg",
            "name" : "yellow-realistic-cheese-texture-vector-food-background-76220080"
        },
        {
            "bufferView" : 14,
            "mimeType" : "image/jpeg",
            "name" : "istockphoto-1367235372-612x612"
        }
    ],
    "accessors" : [
        {
            "bufferView" : 0,
            "componentType" : 5126,
            "count" : 1984,
            "max" : [
                1.4427558183670044,
                0.5922328233718872,
                -1.0993595123291016
            ],
            "min" : [
                -0.6902722120285034,
                -1.39881432056427,
                -3.2618138790130615
            ],
            "type" : "VEC3"
        },
        {
            "bufferView" : 1,
            "componentType" : 5126,
            "count" : 1984,
            "type" : "VEC3"
        },
        {
            "bufferView" : 2,
            "componentType" : 5126,
            "count" : 1984,
            "type" : "VEC2"
        },
        {
            "bufferView" : 3,
            "componentType" : 5123,
            "count" : 2880,
            "type" : "SCALAR"
        },
        {
            "bufferView" : 5,
            "componentType" : 5126,
            "count" : 24,
            "max" : [
                0.857886552810669,
                0.8394008874893188,
                2.9155325889587402
            ],
            "min" : [
                -2.610067129135132,
                -1.6459823846817017,
                1.3087952136993408
            ],
            "type" : "VEC3"
        },
        {
            "bufferView" : 6,
            "componentType" : 5126,
            "count" : 24,
            "type" : "VEC3"
        },
        {
            "bufferView" : 7,
            "componentType" : 5126,
            "count" : 24,
            "type" : "VEC2"
        },
        {
            "bufferView" : 8,
            "componentType" : 5123,
            "count" : 36,
            "type" : "SCALAR"
        },
        {
            "bufferView" : 10,
            "componentType" : 5126,
            "count" : 416,
            "max" : [
                1.321835994720459,
                2.1612467765808105,
                0.5735838413238525
            ],
            "min" : [
                -1.3348414897918701,
                -2.221713066101074,
                -0.49881547689437866
            ],
            "type" : "VEC3"
        },
        {
            "bufferView" : 11,
            "componentType" : 5126,
            "count" : 416,
            "type" : "VEC3"
        },
        {
            "bufferView" : 12,
            "componentType" : 5126,
            "count" : 416,
            "type" : "VEC2"
        },
        {
            "bufferView" : 13,
            "componentType" : 5123,
            "count" : 666,
            "type" : "SCALAR"
        },
        {
            "bufferView" : 15,
            "componentType" : 5126,
            "count" : 288,
            "max" : [
                0.5394834876060486,
                2.6929540634155273,
                0.2577779293060303
            ],
            "min" : [
                -0.5524890422821045,
                2.1612470149993896,
                -0.18300962448120117
            ],
            "type" : "VEC3"
        },
        {
            "bufferView" : 16,
            "componentType" : 5126,
            "count" : 288,
            "type" : "VEC3"
        },
        {
            "bufferView" : 17,
            "componentType" : 5126,
            "count" : 288,
            "type" : "VEC2"
        },
        {
            "bufferView" : 18,
            "componentType" : 5123,
            "count" : 474,
            "type" : "SCALAR"
        }
    ],
    "bufferViews" : [
        {
            "buffer" : 0,
            "byteLength" : 23808,
            "byteOffset" : 0
        },
        {
            "buffer" : 0,
            "byteLength" : 23808,
            "byteOffset" : 23808
        },
        {
            "buffer" : 0,
            "byteLength" : 15872,
            "byteOffset" : 47616
        },
        {
            "buffer" : 0,
            "byteLength" : 5760,
            "byteOffset" : 63488
        },
        {
            "buffer" : 0,
            "byteLength" : 194787,
            "byteOffset" : 69248
        },
        {
            "buffer" : 0,
            "byteLength" : 288,
            "byteOffset" : 264036
        },
        {
            "buffer" : 0,
            "byteLength" : 288,
            "byteOffset" : 264324
        },
        {
            "buffer" : 0,
            "byteLength" : 192,
            "byteOffset" : 264612
        },
        {
            "buffer" : 0,
            "byteLength" : 72,
            "byteOffset" : 264804
        },
        {
            "buffer" : 0,
            "byteLength" : 49924,
            "byteOffset" : 264876
        },
        {
            "buffer" : 0,
            "byteLength" : 4992,
            "byteOffset" : 314800
        },
        {
            "buffer" : 0,
            "byteLength" : 4992,
            "byteOffset" : 319792
        },
        {
            "buffer" : 0,
            "byteLength" : 3328,
            "byteOffset" : 324784
        },
        {
            "buffer" : 0,
            "byteLength" : 1332,
            "byteOffset" : 328112
        },
        {
            "buffer" : 0,
            "byteLength" : 48888,
            "byteOffset" : 329444
        },
        {
            "buffer" : 0,
            "byteLength" : 3456,
            "byteOffset" : 378332
        },
        {
            "buffer" : 0,
            "byteLength" : 3456,
            "byteOffset" : 381788
        },
        {
            "buffer" : 0,
            "byteLength" : 2304,
            "byteOffset" : 385244
        },
        {
            "buffer" : 0,
            "byteLength" : 948,
            "byteOffset" : 387548
        }
    ],
    "samplers" : [
        {
            "magFilter" : 9729,
            "minFilter" : 9987
        }
    ],
    "buffers" : [
        {
            "byteLength" : 388496,
            "uri" : "data:application/octet-stream;base64,"
        }
    ]
}
